<svg width="87" height="49" viewBox="0 0 87 49" fill="none" xmlns="http://www.w3.org/2000/svg">
<path d="M5.75066 29.6643L25.5231 34.4342L26.3981 41.1886L0.999392 33.6992L0.419722 29.2247L5.75066 29.6643ZM23.8247 21.3243L5.93526 31.0893L0.877552 32.7587L0.297882 28.2843L22.9533 14.5984L23.8247 21.3243ZM50.3279 0.735901L40.0058 47.8873L34.6193 48.5851L44.9699 1.43002L50.3279 0.735901ZM80.6325 21.1225L60.5255 16.4539L59.6652 9.81341L85.6587 17.1968L86.2421 21.6998L80.6325 21.1225ZM62.2497 29.7632L80.5418 19.9751L85.7805 18.1373L86.3602 22.6118L63.11 36.4036L62.2497 29.7632Z" fill="#2D2D2D" fill-opacity="0.2"/>
</svg>
